<?xml version="1.0" encoding="iso-8859-1"?>
<!-- Generator: Adobe Illustrator 19.0.0, SVG Export Plug-In . SVG Version: 6.00 Build 0)  -->
<svg version="1.1" id="Capa_1" xmlns="http://www.w3.org/2000/svg" xmlns:xlink="http://www.w3.org/1999/xlink" x="0px" y="0px"
	 viewBox="0 0 512 512" style="enable-background:new 0 0 512 512;" xml:space="preserve">
<rect x="7.515" y="47.593" style="fill:#EDECF1;" width="496.971" height="416.814"/>
<rect x="7.515" y="47.593" style="fill:#DBD9E2;" width="24.047" height="416.814"/>
<rect x="7.515" y="47.593" style="fill:#645BA5;" width="496.971" height="48.094"/>
<rect x="7.515" y="47.593" style="fill:#494170;" width="24.047" height="48.094"/>
<rect x="63.624" y="167.828" style="fill:#F09C48;" width="160.313" height="224.438"/>
<rect x="87.671" y="191.875" style="fill:#EDBC53;" width="112.219" height="176.344"/>
<rect x="256" y="167.828" style="fill:#8EAD5A;" width="192.376" height="128.25"/>
<rect x="280.047" y="191.875" style="fill:#A3C767;" width="144.282" height="80.157"/>
<path d="M504.485,40.078H7.515C3.364,40.078,0,43.443,0,47.593v416.814c0,4.15,3.364,7.515,7.515,7.515h496.971
	c4.151,0,7.515-3.365,7.515-7.515V47.593C512,43.443,508.636,40.078,504.485,40.078z M15.029,55.108h481.941v33.065H15.029V55.108z
	 M15.029,456.892V103.202h481.941v353.691H15.029z"/>
<path d="M457.393,64.125h-1.002c-4.151,0-7.515,3.365-7.515,7.515c0,4.15,3.364,7.515,7.515,7.515h1.002
	c4.151,0,7.515-3.365,7.515-7.515C464.908,67.49,461.544,64.125,457.393,64.125z"/>
<path d="M481.44,64.125h-1.002c-4.151,0-7.515,3.365-7.515,7.515c0,4.15,3.364,7.515,7.515,7.515h1.002
	c4.151,0,7.515-3.365,7.515-7.515C488.955,67.49,485.591,64.125,481.44,64.125z"/>
<path d="M433.346,64.125h-1.002c-4.151,0-7.515,3.365-7.515,7.515c0,4.15,3.364,7.515,7.515,7.515h1.002
	c4.151,0,7.515-3.365,7.515-7.515C440.861,67.49,437.497,64.125,433.346,64.125z"/>
<path d="M223.937,160.313H63.624c-4.151,0-7.515,3.365-7.515,7.515v224.438c0,4.15,3.364,7.515,7.515,7.515h160.313
	c4.151,0,7.515-3.365,7.515-7.515V167.828C231.452,163.678,228.088,160.313,223.937,160.313z M216.423,384.751H71.139V175.342
	h145.284V384.751z"/>
<path d="M448.376,160.313h-32.063c-4.151,0-7.515,3.365-7.515,7.515s3.364,7.515,7.515,7.515h24.548v113.221H263.515V175.342
	h117.062c4.151,0,7.515-3.365,7.515-7.515s-3.364-7.515-7.515-7.515H256c-4.151,0-7.515,3.365-7.515,7.515v128.25
	c0,4.15,3.364,7.515,7.515,7.515h192.376c4.151,0,7.515-3.365,7.515-7.515v-128.25C455.89,163.678,452.527,160.313,448.376,160.313z
	"/>
<path d="M256,335.656h120.736c4.151,0,7.515-3.365,7.515-7.515s-3.364-7.515-7.515-7.515H256c-4.151,0-7.515,3.365-7.515,7.515
	S251.849,335.656,256,335.656z"/>
<path d="M448.376,320.626h-32.063c-4.151,0-7.515,3.365-7.515,7.515s3.364,7.515,7.515,7.515h32.063
	c4.151,0,7.515-3.365,7.515-7.515S452.527,320.626,448.376,320.626z"/>
<path d="M256,367.718h88.673c4.151,0,7.515-3.365,7.515-7.515s-3.364-7.515-7.515-7.515H256c-4.151,0-7.515,3.365-7.515,7.515
	S251.849,367.718,256,367.718z"/>
<path d="M448.376,352.689H384.25c-4.151,0-7.515,3.365-7.515,7.515s3.364,7.515,7.515,7.515h64.125c4.151,0,7.515-3.365,7.515-7.515
	S452.527,352.689,448.376,352.689z"/>
<path d="M448.376,384.751H256c-4.151,0-7.515,3.365-7.515,7.515s3.364,7.515,7.515,7.515h192.376c4.151,0,7.515-3.365,7.515-7.515
	S452.527,384.751,448.376,384.751z"/>
<g>
</g>
<g>
</g>
<g>
</g>
<g>
</g>
<g>
</g>
<g>
</g>
<g>
</g>
<g>
</g>
<g>
</g>
<g>
</g>
<g>
</g>
<g>
</g>
<g>
</g>
<g>
</g>
<g>
</g>
</svg>
